<svg width="744" height="145" viewBox="0 0 744 145" fill="none" xmlns="http://www.w3.org/2000/svg">
<path d="M126.24 11.84L111.6 68H95.04L86.08 31.04L76.8 68H60.24L46 11.84H60.64L68.72 52.72L78.72 11.84H93.76L103.36 52.72L111.52 11.84H126.24ZM160.541 22.88C165.661 22.88 169.767 24.5867 172.861 28C175.954 31.36 177.501 36 177.501 41.92V68H163.901V43.76C163.901 40.7733 163.127 38.4533 161.581 36.8C160.034 35.1467 157.954 34.32 155.341 34.32C152.727 34.32 150.647 35.1467 149.101 36.8C147.554 38.4533 146.781 40.7733 146.781 43.76V68H133.101V8.8H146.781V29.36C148.167 27.3867 150.061 25.8133 152.461 24.64C154.861 23.4667 157.554 22.88 160.541 22.88ZM207.327 68.64C202.954 68.64 199.007 67.7067 195.487 65.84C192.02 63.9733 189.274 61.3067 187.247 57.84C185.274 54.3733 184.287 50.32 184.287 45.68C184.287 41.0933 185.3 37.0667 187.327 33.6C189.354 30.08 192.127 27.3867 195.647 25.52C199.167 23.6533 203.114 22.72 207.487 22.72C211.86 22.72 215.807 23.6533 219.327 25.52C222.847 27.3867 225.62 30.08 227.647 33.6C229.674 37.0667 230.687 41.0933 230.687 45.68C230.687 50.2667 229.647 54.32 227.567 57.84C225.54 61.3067 222.74 63.9733 219.167 65.84C215.647 67.7067 211.7 68.64 207.327 68.64ZM207.327 56.8C209.94 56.8 212.154 55.84 213.967 53.92C215.834 52 216.767 49.2533 216.767 45.68C216.767 42.1067 215.86 39.36 214.047 37.44C212.287 35.52 210.1 34.56 207.487 34.56C204.82 34.56 202.607 35.52 200.847 37.44C199.087 39.3067 198.207 42.0533 198.207 45.68C198.207 49.2533 199.06 52 200.767 53.92C202.527 55.84 204.714 56.8 207.327 56.8ZM241.064 11.84H255.064L246.104 33.28H236.904L241.064 11.84ZM281.261 68.64C277.367 68.64 273.901 67.9733 270.861 66.64C267.821 65.3067 265.421 63.4933 263.661 61.2C261.901 58.8533 260.914 56.24 260.701 53.36H274.221C274.381 54.9067 275.101 56.16 276.381 57.12C277.661 58.08 279.234 58.56 281.101 58.56C282.807 58.56 284.114 58.24 285.021 57.6C285.981 56.9067 286.461 56.0267 286.461 54.96C286.461 53.68 285.794 52.7467 284.461 52.16C283.127 51.52 280.967 50.8267 277.981 50.08C274.781 49.3333 272.114 48.56 269.981 47.76C267.847 46.9067 266.007 45.6 264.461 43.84C262.914 42.0267 262.141 39.6 262.141 36.56C262.141 34 262.834 31.68 264.221 29.6C265.661 27.4667 267.741 25.7867 270.461 24.56C273.234 23.3333 276.514 22.72 280.301 22.72C285.901 22.72 290.301 24.1067 293.501 26.88C296.754 29.6533 298.621 33.3333 299.101 37.92H286.461C286.247 36.3733 285.554 35.1467 284.381 34.24C283.261 33.3333 281.767 32.88 279.901 32.88C278.301 32.88 277.074 33.2 276.221 33.84C275.367 34.4267 274.941 35.2533 274.941 36.32C274.941 37.6 275.607 38.56 276.941 39.2C278.327 39.84 280.461 40.48 283.341 41.12C286.647 41.9733 289.341 42.8267 291.421 43.68C293.501 44.48 295.314 45.8133 296.861 47.68C298.461 49.4933 299.287 51.9467 299.341 55.04C299.341 57.6533 298.594 60 297.101 62.08C295.661 64.1067 293.554 65.7067 290.781 66.88C288.061 68.0533 284.887 68.64 281.261 68.64ZM338.343 11.84V68H324.663V11.84H338.343ZM375.457 22.88C380.684 22.88 384.844 24.5867 387.937 28C391.084 31.36 392.657 36 392.657 41.92V68H379.057V43.76C379.057 40.7733 378.284 38.4533 376.737 36.8C375.19 35.1467 373.11 34.32 370.497 34.32C367.884 34.32 365.804 35.1467 364.257 36.8C362.71 38.4533 361.937 40.7733 361.937 43.76V68H348.257V23.36H361.937V29.28C363.324 27.3067 365.19 25.76 367.537 24.64C369.884 23.4667 372.524 22.88 375.457 22.88ZM422.243 55.2L431.923 23.36H446.483L430.643 68H413.763L397.923 23.36H412.563L422.243 55.2ZM472.561 68.64C468.188 68.64 464.241 67.7067 460.721 65.84C457.255 63.9733 454.508 61.3067 452.481 57.84C450.508 54.3733 449.521 50.32 449.521 45.68C449.521 41.0933 450.535 37.0667 452.561 33.6C454.588 30.08 457.361 27.3867 460.881 25.52C464.401 23.6533 468.348 22.72 472.721 22.72C477.095 22.72 481.041 23.6533 484.561 25.52C488.081 27.3867 490.855 30.08 492.881 33.6C494.908 37.0667 495.921 41.0933 495.921 45.68C495.921 50.2667 494.881 54.32 492.801 57.84C490.775 61.3067 487.975 63.9733 484.401 65.84C480.881 67.7067 476.935 68.64 472.561 68.64ZM472.561 56.8C475.175 56.8 477.388 55.84 479.201 53.92C481.068 52 482.001 49.2533 482.001 45.68C482.001 42.1067 481.095 39.36 479.281 37.44C477.521 35.52 475.335 34.56 472.721 34.56C470.055 34.56 467.841 35.52 466.081 37.44C464.321 39.3067 463.441 42.0533 463.441 45.68C463.441 49.2533 464.295 52 466.001 53.92C467.761 55.84 469.948 56.8 472.561 56.8ZM516.859 8.8V68H503.179V8.8H516.859ZM546.853 55.2L556.533 23.36H571.093L555.253 68H538.373L522.533 23.36H537.173L546.853 55.2ZM618.931 44.96C618.931 46.24 618.851 47.5733 618.691 48.96H587.731C587.944 51.7333 588.824 53.8667 590.371 55.36C591.971 56.8 593.917 57.52 596.211 57.52C599.624 57.52 601.997 56.08 603.331 53.2H617.891C617.144 56.1333 615.784 58.7733 613.811 61.12C611.891 63.4667 609.464 65.3067 606.531 66.64C603.597 67.9733 600.317 68.64 596.691 68.64C592.317 68.64 588.424 67.7067 585.011 65.84C581.597 63.9733 578.931 61.3067 577.011 57.84C575.091 54.3733 574.131 50.32 574.131 45.68C574.131 41.04 575.064 36.9867 576.931 33.52C578.851 30.0533 581.517 27.3867 584.931 25.52C588.344 23.6533 592.264 22.72 596.691 22.72C601.011 22.72 604.851 23.6267 608.211 25.44C611.571 27.2533 614.184 29.84 616.051 33.2C617.971 36.56 618.931 40.48 618.931 44.96ZM604.931 41.36C604.931 39.0133 604.131 37.1467 602.531 35.76C600.931 34.3733 598.931 33.68 596.531 33.68C594.237 33.68 592.291 34.3467 590.691 35.68C589.144 37.0133 588.184 38.9067 587.811 41.36H604.931ZM623.428 45.6C623.428 41.0133 624.281 36.9867 625.988 33.52C627.748 30.0533 630.121 27.3867 633.108 25.52C636.094 23.6533 639.428 22.72 643.108 22.72C646.041 22.72 648.708 23.3333 651.108 24.56C653.561 25.7867 655.481 27.44 656.868 29.52V8.8H670.548V68H656.868V61.6C655.588 63.7333 653.748 65.44 651.348 66.72C649.001 68 646.254 68.64 643.108 68.64C639.428 68.64 636.094 67.7067 633.108 65.84C630.121 63.92 627.748 61.2267 625.988 57.76C624.281 54.24 623.428 50.1867 623.428 45.6ZM656.868 45.68C656.868 42.2667 655.908 39.5733 653.988 37.6C652.121 35.6267 649.828 34.64 647.108 34.64C644.388 34.64 642.068 35.6267 640.148 37.6C638.281 39.52 637.348 42.1867 637.348 45.6C637.348 49.0133 638.281 51.7333 640.148 53.76C642.068 55.7333 644.388 56.72 647.108 56.72C649.828 56.72 652.121 55.7333 653.988 53.76C655.908 51.7867 656.868 49.0933 656.868 45.68ZM696.844 8.72C702.551 8.72 707.111 10.2133 710.524 13.2C713.991 16.1867 715.724 20.4 715.724 25.84C715.724 30.8533 714.071 34.7733 710.764 37.6C707.511 40.3733 703.191 41.7867 697.804 41.84L697.404 47.84H685.404L685.004 32.96H689.804C693.911 32.96 697.031 32.4533 699.164 31.44C701.351 30.4267 702.444 28.5867 702.444 25.92C702.444 24.0533 701.938 22.5867 700.924 21.52C699.911 20.4533 698.498 19.92 696.684 19.92C694.764 19.92 693.271 20.48 692.204 21.6C691.138 22.6667 690.604 24.1333 690.604 26H677.724C677.618 22.7467 678.284 19.8133 679.724 17.2C681.218 14.5867 683.404 12.5333 686.284 11.04C689.218 9.49333 692.738 8.72 696.844 8.72ZM691.564 68.64C689.164 68.64 687.191 67.9467 685.644 66.56C684.151 65.12 683.404 63.36 683.404 61.28C683.404 59.1467 684.151 57.36 685.644 55.92C687.191 54.48 689.164 53.76 691.564 53.76C693.911 53.76 695.831 54.48 697.324 55.92C698.871 57.36 699.644 59.1467 699.644 61.28C699.644 63.36 698.871 65.12 697.324 66.56C695.831 67.9467 693.911 68.64 691.564 68.64Z" fill="#575757"/>
<path d="M25.0079 111.704C167.581 109.058 313.119 107.457 455.824 109.433C514.145 110.241 546.329 111.284 599.257 113.609C640.627 115.427 678.987 118.004 718.605 120.374" stroke="url(#paint0_linear_230_532)" stroke-width="49" stroke-linecap="round"/>
<defs>
<linearGradient id="paint0_linear_230_532" x1="25.0248" y1="116.263" x2="718.58" y2="113.687" gradientUnits="userSpaceOnUse">
<stop stop-color="#7864FF"/>
<stop offset="1" stop-color="#32A6FF"/>
</linearGradient>
</defs>
</svg>
